<?xml version="1.0" encoding="UTF-8" standalone="no"?>
<svg
   width="591"
   height="138"
   version="1.1"
   id="svg6"
   xmlns="http://www.w3.org/2000/svg">
  <defs
     id="defs6"/>
  <path
     fill="#186298"
     d="m 175.245,2.74131 35.778,-0.10265 -0.269,132.57434 -35.679,0.205 z"
     id="path1" />
  <path
     fill="#186298"
     d="m 246.1112,2.519841 36.4678,0.053359 -0.065,98.2078 37.634,-0.044 -0.163,34.564 -73.893,0.166 z"
     id="path2"/>
  <path
     fill="#186298"
     d="M549.962 89.9448C549.955 89.9269 549.949 89.909 549.942 89.8912C549.138 87.7817 545.699 86.2988 543.737 85.4439C526.369 77.8749 505.459 75.8599 497.472 55.5629C493.736 46.0679 494.567 33.8117 498.619 24.5409C502.73 15.1345 510.419 8.56098 519.884 4.85901C537.124 -1.88336 561.999 -0.245684 578.785 7.14198C580.923 8.08274 587.833 11.4279 588.628 13.5722C588.655 13.6466 588.673 13.7187 588.691 13.796C589.102 14.7864 588.374 16.1802 587.987 17.1151C586.301 21.1912 579.149 39.2287 577.353 40.6395C571.352 35.3201 555.442 31.7514 547.554 32.2337C543.163 32.5021 537.757 33.8293 534.718 37.2557C533.45 38.686 532.766 40.4776 532.882 42.3943C533 44.3559 534.073 45.9423 535.523 47.2022C540.295 51.3499 547.579 52.7871 553.532 54.5123C570.238 59.3535 588.666 66.4291 590.192 86.4693Q590.275 87.5609 590.305 88.6553Q590.335 89.7497 590.311 90.8443Q590.288 91.9388 590.211 93.0309Q590.134 94.123 590.004 95.2101Q589.874 96.2971 589.692 97.3766Q589.509 98.456 589.274 99.5253Q589.039 100.595 588.752 101.651Q588.466 102.708 588.128 103.749Q587.79 104.79 587.402 105.814Q587.014 106.837 586.576 107.841Q586.138 108.844 585.653 109.825Q585.167 110.806 584.634 111.762Q584.1 112.719 583.521 113.648Q582.942 114.577 582.319 115.476Q581.695 116.376 581.029 117.244Q580.362 118.112 579.654 118.947C571.712 128.174 561.364 133.625 549.641 136.344C546.776 137.008 543.426 137.084 540.686 138L530.298 138C529.517 137.259 527.733 137.399 526.701 137.352C521.878 137.133 516.768 135.935 512.059 134.921C502.335 132.827 493.735 128.878 485.143 123.997C486.379 122.43 499.322 93.0803 499.199 91.8307C499.195 91.7886 499.189 91.7466 499.184 91.7046C502.666 92.5963 506.227 94.7558 509.515 96.2542C520.269 101.155 535.39 107.271 546.608 100.594C548.607 99.4049 550.251 97.4216 550.824 95.1429C551.249 93.4493 551.069 91.726 550.16 90.2211C550.1 90.1208 550.037 90.0339 549.962 89.9448Z"
     id="path3"/>
  <path
     fill="#186298"
     d="M 350.448,2.74251 450.694,2.61311 450.619,37.2017 386.75,37.09 l -0.159,15.7731 49.947,-0.0513 0.006,30.6728 -49.404,0.0837 -0.0412,17.20822 c 0.3399,-0.15672 63.59025,-0.24754 63.59025,-0.24754 l -0.069,34.856 -100.71,0.134 0.538,-132.77647 z"
     id="path4"/>
  <path
     fill="#186298"
     d="M 71.5994,46.5842 111.566,2.83826 142.729,2.62602 142.527,135.327 142.415,135.496 106.992,135.47 106.842,53.2742 71.7254,96.3432 36.3493,54.2747 36.4857,135.441 0.250036,134.938 0,2.89337 33.1947,2.92708 Z M 0,134.868 l 0.250036,0.07 z"
     id="path5"/>
</svg>
